# xmcd
#
# Track frame offsets:
# 183
# 19845
# 36058
# 53370
# 72445
# 88495
# 101320
# 117920
# 134808
# 154508
# 171220
# 190058
# 206708
# 226383
# 243958
# 259670
# 276220
# 290683
#
# Disc length: 4127 seconds
#
#
# Revision: 3
# Processed by: cddbd v1.5.2PL0 Copyright (c) Steve Scherf et al.
# Submitted via: FreeRIP 2.951 
#
DISCID=03101d12
DTITLE=Kenny Rogers - Het beste van Kenny Rogers
DYEAR=1990
DGENRE=Country
TTITLE0=Coward Of The County
TTITLE1=Lucille
TTITLE2=We've Got Tonight (Duet With Sheena Easton)
TTITLE3=She Believes In Me
TTITLE4=The Gambler
TTITLE5=Ruby, Don't Take Your Love To Town
TTITLE6=Don't Fall In Love With A Dreamer (Duet With Kim Carnes)
TTITLE7=20 Years Ago
TTITLE8=Through The Years
TTITLE9=Eyes That See In The Dark
TTITLE10=Islands In The Stream (Duet With Dolly Parton)
TTITLE11=Crazy
TTITLE12=What About Me (With Kim Carnes and James Ingram)
TTITLE13=Lady
TTITLE14=I Don't Need You
TTITLE15=You Decorated My Life
TTITLE16=Love The World Away
TTITLE17=Buried Treasure
EXTD=GoodDay's verzameling
EXTT0=
EXTT1=
EXTT2=
EXTT3=
EXTT4=
EXTT5=
EXTT6=
EXTT7=
EXTT8=
EXTT9=
EXTT10=
EXTT11=
EXTT12=
EXTT13=
EXTT14=
EXTT15=
EXTT16=
EXTT17=
PLAYORDER=
